#!OML:ASF F:\VICON\USERDATA\INSTALL\rory3\rory3.ASF
:FULLY-SPECIFIED
:DEGREES
122
root 0.010349646584900285 17.718898405039837 -10.881243559708967 8.807480986155431 -0.7881012640053149 -0.6992949735750318
lfemur -36.019993071926024 5.494398508851654 -18.730296517850068
ltibia 35.2087802798264
lfoot -12.057821811698867 7.510867193367203
ltoes 1.478240009564487
rfemur -34.73910850393132 -4.578582768199027 20.351622130258146
rtibia 35.19102801991907
rfoot -12.030565316892545 -4.655533405624317
rtoes 11.222815610612532
lowerback 4.484425798839939 0.22363172365354025 -1.615844615290106
upperback 7.712861083379871 0.21151174151832997 1.2384681044323866
thorax 2.8410153415967643 0.013518448566194746 2.071569814421327
lowerneck -12.557895893800788 -4.236278716815664 -1.0680426563146976
upperneck 36.13065963377931 -6.33862321893384 3.501693670537401
head 14.162731098048349 -2.871940271189085 1.3932829907579487
lclavicle -1.4281242909929674e-17 -8.191310679234841e-16
lhumerus -19.078711938656337 -17.78556941390198 89.40688397356718
lradius 27.807626788449962
lwrist 19.486992734668135
lhand -26.327947995242027 -5.373601249428088
lfingers 7.125019999999999
lthumb -0.4327812990152724 23.921404747472025
rclavicle -1.2124161806308174e-17 -8.165919618384017e-16
rhumerus -16.57952979715215 8.425893769100858 -88.40919033476328
rradius 37.65596942318692
rwrist 23.13843980603734
rhand -21.78056260436949 -28.174835313438482
rfingers 7.125019999999999
rthumb 4.428879625591803 -58.25327356004243
123
root 0.07033809375611466 17.90177372416013 -10.909462650478524 10.00717465386974 -1.6248496107346797 -0.3922931861648745
lfemur -32.53675356776043 5.646684818801372 -19.17372097316134
ltibia 30.173792907050593
lfoot -10.621334699467514 7.214790466998386
ltoes 3.240201013143297
rfemur -33.2158734406971 -3.8139632829593384 19.64240824841353
rtibia 33.942161836107246
rfoot -11.40898679179991 -4.442136039380894
rtoes 13.06003365554672
lowerback 3.522729856240223 0.31068482127936314 -1.980146695202217
upperback 7.328703262658992 0.33665982506128467 1.1203747577759782
thorax 3.0006574578893015 0.06145108284053691 2.0145390764500353
lowerneck -12.485085998064552 -3.975327838972902 -0.9903797729160312
upperneck 35.69835110948394 -5.929730523548759 3.2379143636759675
head 13.946432915196386 -2.721762746868477 1.2468992396507412
lclavicle -1.390483127239482e-17 -8.186497858102158e-16
lhumerus -19.94808815428496 -18.561000793877387 88.82187786869684
lradius 27.86755787101062
lwrist 20.529045099752896
lhand -24.86948056568683 -4.622827956415331
lfingers 7.125019999999999
lthumb 0.9934278820893261 24.574817029831767
rclavicle -1.2115631212100208e-17 -8.165792208144493e-16
rhumerus -17.15785129381802 9.898936803128128 -88.55696151589704
rradius 38.57931702248069
rwrist 22.29542849097394
rhand -21.54017375789477 -27.728882112397525
rfingers 7.125019999999999
rthumb 4.617177210768135 -57.75775960696023
124
root 0.13866582629480229 17.964550807530223 -10.98582038089273 10.810492175207765 -2.4171189239679647 -0.3446963279004597
lfemur -30.07238908242649 5.928280259034787 -19.459908803641188
ltibia 27.28185492252692
lfoot -9.5728825193523 7.0088419468950764
ltoes 4.223328855612828
rfemur -31.874483908490376 -3.177290421798867 19.072377617601564
rtibia 34.448723811763664
rfoot -11.259910767862788 -3.960154502307842
rtoes 13.78260606184676
lowerback 3.6910928499986757 0.3295248817237396 -2.0197893728967857
upperback 7.074425001199996 0.3756050138741579 1.1100810980512406
thorax 3.2236403940284077 0.0816842756584159 1.9426977973585653
lowerneck -12.551354453554113 -3.3971480806445187 -0.8253615479109431
upperneck 35.123490278416654 -5.021740904295455 2.6553783715343844
head 13.65066702800417 -2.369745233058095 0.9898012666756023
lclavicle -1.3432294056855985e-17 -8.180110363607359e-16
lhumerus -20.572719467685207 -18.514345317166892 87.98852450007307
lradius 27.632853780365753
lwrist 21.578852333416567
lhand -23.22952858416886 -3.9559804896256203
lfingers 7.125019999999999
lthumb 2.619658246536919 25.198441496088257
rclavicle -1.1930632650604775e-17 -8.163340420697662e-16
rhumerus -17.62422090833862 10.190006269679031 -88.3300263521048
rradius 39.16286884582695
rwrist 21.820591818112252
rhand -21.495041408377848 -27.450165457779484
rfingers 7.125019999999999
rthumb 4.622646417990385 -57.42038835607465
125
root 0.19480982198587926 17.92931429153115 -11.115978899160604 11.091530321724832 -2.9239510811934837 -0.1923636004928012
lfemur -28.202744353859575 6.227546213729989 -19.88218005728757
ltibia 25.767915292802915
lfoot -9.052140342627693 6.844705046257347
ltoes 4.828861103740099
rfemur -30.196229287438115 -2.6631516922262204 18.356580967485755
rtibia 35.50117409300628
rfoot -11.564011053297069 -3.437154656081097
rtoes 13.511153561569266
lowerback 5.0381819445791525 0.27613250008359225 -2.2420339374869784
upperback 7.0988363055865715 0.29612796691179133 1.1107867097234407
thorax 3.3531358276314145 0.03538701082857215 1.9682605367481145
lowerneck -12.630049460761875 -2.7660259363537882 -0.7152737073491824
upperneck 34.54033243302372 -4.1080331126774885 2.1277272289868403
head 13.450987061170546 -1.977374864065518 0.7847421418993306
lclavicle -1.2741218151851843e-17 -8.170703968442911e-16
lhumerus -20.860325972341627 -17.026553784190988 86.80686223752855
lradius 26.961531064006493
lwrist 21.65078272380511
lhand -21.706308398597308 -3.432187335070878
lfingers 7.125019999999999
lthumb 4.024066605283969 25.629547665988042
rclavicle -1.2136609227436479e-17 -8.1660296130854e-16
rhumerus -17.909961691402682 8.96138220291906 -87.73132819983748
rradius 39.130612369442716
rwrist 21.95837850345505
rhand -21.40245251266965 -27.29994484967905
rfingers 7.125019999999999
rthumb 4.723385057400911 -57.2194653733036
126
root 0.23706811755761187 17.86517241436009 -11.2707714422462 11.297782530677978 -3.2623802277301386 -0.09888239745993488
lfemur -27.520732961962622 6.5294474820276935 -20.214238992166816
ltibia 25.26738315846649
lfoot -8.767936721012209 6.682228985587805
ltoes 4.952212087649083
rfemur -29.062712821192843 -2.179746218906805 17.860060222338426
rtibia 36.45469004605258
rfoot -12.059327016227433 -3.018759691709901
rtoes 12.527630509082034
lowerback 6.765471951364834 0.2521190611152937 -2.3328985656693875
upperback 7.332757238399049 0.26144122285202154 1.1361353162581662
thorax 3.3691671127061973 0.01509234449731739 2.0146905364873797
lowerneck -12.705535533173858 -2.2679570537811182 -0.5797212580266617
upperneck 33.96666397366456 -3.3667869150491834 1.6615943123020736
head 13.270928625804094 -1.645896544952468 0.5987528438445284
lclavicle -1.3199951636027719e-17 -8.176564714186829e-16
lhumerus -20.739406123843096 -14.705777030298991 85.6080502375009
lradius 25.942273031597942
lwrist 20.418714179683917
lhand -20.958849928549377 -3.1119659361287435
lfingers 7.125019999999999
lthumb 4.361751580205148 25.80029299984543
rclavicle -1.1865981716216951e-17 -8.162455211202053e-16
rhumerus -18.21220144142884 6.506902151000443 -86.8849448762995
rradius 38.53052318002416
rwrist 22.52158692214751
rhand -21.1942054384088 -27.247412849271846
rfingers 7.125019999999999
rthumb 4.953893943374981 -57.15066149516747
127
root 0.2594287859364075 17.813673432535644 -11.402811401078617 11.503785400338714 -3.267266416581723 -0.16715257959194318
lfemur -27.68402805101374 6.689281877150354 -20.28049284520905
ltibia 25.451460185054135
lfoot -8.805393787054799 6.513403021200359
ltoes 4.832787652933579
rfemur -28.317593472970504 -1.9587478443304107 17.845376811324282
rtibia 36.821540156239465
rfoot -12.505082946645869 -2.7330855866165154
rtoes 11.456440483396069
lowerback 8.571905302631974 0.20409762378428 -2.119588417377009
upperback 7.665475621144197 0.18863828740853017 1.2063530779009384
thorax 3.315523240331955 -0.01851224835768095 2.0013821662888067
lowerneck -12.807940510898277 -2.0724804591821253 -0.5733911448175402
upperneck 33.43283613801554 -3.027905557734076 1.5173084862399593
head 13.206223231424367 -1.468493998741871 0.5545066994626162
lclavicle -1.4087779896130303e-17 -8.188169774494542e-16
lhumerus -20.43405610811829 -12.95904862264987 84.78157076801914
lradius 25.1026156310383
lwrist 19.44654613580766
lhand -21.43223094855934 -3.1042514925033617
lfingers 7.125019999999999
lthumb 3.6682731757074856 25.731091051463842
rclavicle -1.1940426992758475e-17 -8.16344738906161e-16
rhumerus -18.49595245322123 3.3622038352793258 -85.89479317837979
rradius 37.17610183815147
rwrist 23.55823678292
rhand -20.967161756065284 -27.28710203623892
rfingers 7.125019999999999
rthumb 5.171659596225707 -57.17258563512658
